<svg width="32" height="32" viewBox="0 0 32 32" fill="none" xmlns="http://www.w3.org/2000/svg">
<rect width="32" height="32" rx="16" fill="#202425"/>
<path d="M10.5834 22.1602H11.7617L19.8444 14.0775L18.6661 12.8992L10.5834 20.9819V22.1602ZM8.92969 23.8139V20.2997L19.8444 9.40563C20.0098 9.25403 20.1924 9.13689 20.3922 9.05421C20.592 8.97152 20.8022 8.93018 21.0227 8.93018C21.2432 8.93018 21.4568 8.97152 21.6635 9.05421C21.8703 9.13689 22.0494 9.26093 22.201 9.4263L23.338 10.5839C23.5033 10.7355 23.6239 10.9147 23.6997 11.1214C23.7755 11.3281 23.8134 11.5348 23.8134 11.7415C23.8134 11.962 23.7755 12.1722 23.6997 12.372C23.6239 12.5719 23.5033 12.7545 23.338 12.9198L12.4439 23.8139H8.92969ZM19.2449 13.4987L18.6661 12.8992L19.8444 14.0775L19.2449 13.4987Z" fill="white"/>
</svg>
