<svg width="32" height="32" viewBox="0 0 32 32" fill="none" xmlns="http://www.w3.org/2000/svg">
<rect width="32" height="32" rx="16" fill="#202425"/>
<path d="M11.5097 23.8837C11.0492 23.8837 10.655 23.7218 10.3271 23.3979C9.99921 23.0741 9.83526 22.6848 9.83526 22.23V11.4806H8.99805V9.82687H13.1841V9H18.2073V9.82687H22.3934V11.4806H21.5562V22.23C21.5562 22.6848 21.3922 23.0741 21.0643 23.3979C20.7364 23.7218 20.3422 23.8837 19.8818 23.8837H11.5097ZM19.8818 11.4806H11.5097V22.23H19.8818V11.4806ZM13.1841 20.5762H14.8585V13.1344H13.1841V20.5762ZM16.5329 20.5762H18.2073V13.1344H16.5329V20.5762Z" fill="white"/>
</svg>
