<svg width="20" height="23" viewBox="0 0 20 23" fill="none" xmlns="http://www.w3.org/2000/svg">
<path d="M10 0L20 7.66667V23H0V7.66667L10 0ZM10 15.3333C11.0417 15.3333 11.9271 14.9606 12.6562 14.2153C13.3854 13.4699 13.75 12.5648 13.75 11.5C13.75 10.4352 13.3854 9.53009 12.6562 8.78472C11.9271 8.03935 11.0417 7.66667 10 7.66667C8.95833 7.66667 8.07292 8.03935 7.34375 8.78472C6.61458 9.53009 6.25 10.4352 6.25 11.5C6.25 12.5648 6.61458 13.4699 7.34375 14.2153C8.07292 14.9606 8.95833 15.3333 10 15.3333ZM10 12.7778C9.64583 12.7778 9.34896 12.6553 9.10938 12.4104C8.86979 12.1655 8.75 11.862 8.75 11.5C8.75 11.138 8.86979 10.8345 9.10938 10.5896C9.34896 10.3447 9.64583 10.2222 10 10.2222C10.3542 10.2222 10.651 10.3447 10.8906 10.5896C11.1302 10.8345 11.25 11.138 11.25 11.5C11.25 11.862 11.1302 12.1655 10.8906 12.4104C10.651 12.6553 10.3542 12.7778 10 12.7778ZM10 19.1667C9.14583 19.1667 8.3125 19.2731 7.5 19.4861C6.6875 19.6991 5.91667 20.0185 5.1875 20.4444H14.8125C14.0833 20.0185 13.3125 19.6991 12.5 19.4861C11.6875 19.2731 10.8542 19.1667 10 19.1667ZM2.5 8.94444V19.1667C3.58333 18.3361 4.76042 17.7025 6.03125 17.266C7.30208 16.8294 8.625 16.6111 10 16.6111C11.375 16.6111 12.6979 16.8294 13.9688 17.266C15.2396 17.7025 16.4167 18.3361 17.5 19.1667V8.94444L10 3.19444L2.5 8.94444Z" fill="black"/>
</svg>
