<svg width="32" height="32" viewBox="0 0 32 32" fill="none" xmlns="http://www.w3.org/2000/svg">
<rect x="0.5" y="0.5" width="31" height="31" rx="15.5" fill="white"/>
<rect x="0.5" y="0.5" width="31" height="31" rx="15.5" stroke="black"/>
<path d="M20.3714 9H13.1143V18.412L18.1943 23.48L19.1014 22.575C19.1861 22.4905 19.2556 22.3759 19.3101 22.2311C19.3645 22.0863 19.3917 21.9475 19.3917 21.8148V21.5614L18.5934 18.412H22.5486C22.9356 18.412 23.2743 18.2672 23.5646 17.9776C23.8549 17.688 24 17.3501 24 16.964V15.516C24 15.4315 23.9909 15.341 23.9728 15.2445C23.9546 15.148 23.9274 15.0575 23.8911 14.973L21.714 9.8688C21.6051 9.62747 21.4237 9.42233 21.1697 9.2534C20.9157 9.08447 20.6496 9 20.3714 9ZM11.6629 18.412V9H8.76V18.412H11.6629Z" fill="#FF0000"/>
</svg>
