<svg width="32" height="32" viewBox="0 0 32 32" fill="none" xmlns="http://www.w3.org/2000/svg">
<rect x="0.5" y="0.5" width="31" height="31" rx="15.5" fill="white"/>
<rect x="0.5" y="0.5" width="31" height="31" rx="15.5" stroke="black"/>
<path d="M19.9908 9.38123H12.009V18.7908L17.0883 23.8574L17.9954 22.9527C18.08 22.8682 18.1496 22.7536 18.204 22.6089C18.2584 22.4641 18.2856 22.3254 18.2856 22.1927V21.9393L17.4874 18.7908H22.1677C22.5547 18.7908 22.8933 18.646 23.1836 18.3565C23.4738 18.0669 23.619 17.7292 23.619 17.3431V15.8955C23.619 15.8111 23.6069 15.7206 23.5827 15.6241C23.5585 15.5276 23.5343 15.4371 23.5101 15.3527L21.3332 10.2498C21.2244 10.0085 21.043 9.80345 20.789 9.63456C20.5351 9.46568 20.269 9.38123 19.9908 9.38123ZM13.4602 10.8289H19.9908L22.1677 15.8955V17.3431H15.6371L16.6167 21.3241L13.4602 18.1755V10.8289ZM12.009 18.7908V17.3431H9.83211V10.8289H12.009V9.38123H8.38086V18.7908H12.009Z" fill="black"/>
</svg>
