<svg width="20" height="20" viewBox="0 0 20 20" fill="none" xmlns="http://www.w3.org/2000/svg">
<path d="M0 20V4.44444H4.44444V0H15.5556V8.88889H20V20H11.1111V15.5556H8.88889V20H0ZM2.22222 17.7778H4.44444V15.5556H2.22222V17.7778ZM2.22222 13.3333H4.44444V11.1111H2.22222V13.3333ZM2.22222 8.88889H4.44444V6.66667H2.22222V8.88889ZM6.66667 13.3333H8.88889V11.1111H6.66667V13.3333ZM6.66667 8.88889H8.88889V6.66667H6.66667V8.88889ZM6.66667 4.44444H8.88889V2.22222H6.66667V4.44444ZM11.1111 13.3333H13.3333V11.1111H11.1111V13.3333ZM11.1111 8.88889H13.3333V6.66667H11.1111V8.88889ZM11.1111 4.44444H13.3333V2.22222H11.1111V4.44444ZM15.5556 17.7778H17.7778V15.5556H15.5556V17.7778ZM15.5556 13.3333H17.7778V11.1111H15.5556V13.3333Z" fill="black"/>
</svg>
