<svg width="32" height="32" viewBox="0 0 32 32" fill="none" xmlns="http://www.w3.org/2000/svg">
<rect x="0.5" y="0.5" width="31" height="31" rx="15.5" fill="white"/>
<rect x="0.5" y="0.5" width="31" height="31" rx="15.5" stroke="black"/>
<path d="M19.9908 22.857H12.009V13.4475L17.0883 8.38086L17.9954 9.28562C18.08 9.37007 18.1496 9.48467 18.204 9.62943C18.2584 9.77419 18.2856 9.91292 18.2856 10.0456V10.299L17.4874 13.4475H22.1677C22.5547 13.4475 22.8933 13.5923 23.1836 13.8818C23.4738 14.1713 23.619 14.5091 23.619 14.8951V16.3428C23.619 16.4272 23.6069 16.5177 23.5827 16.6142C23.5585 16.7107 23.5343 16.8012 23.5101 16.8856L21.3332 21.9885C21.2244 22.2297 21.043 22.4348 20.789 22.6037C20.5351 22.7726 20.269 22.857 19.9908 22.857ZM13.4602 21.4094H19.9908L22.1677 16.3428V14.8951H15.6371L16.6167 10.9142L13.4602 14.0628V21.4094ZM12.009 13.4475V14.8951H9.83211V21.4094H12.009V22.857H8.38086V13.4475H12.009Z" fill="black"/>
</svg>
