<svg width="32" height="32" viewBox="0 0 32 32" fill="none" xmlns="http://www.w3.org/2000/svg">
<rect x="0.5" y="0.5" width="31" height="31" rx="15.5" fill="white"/>
<rect x="0.5" y="0.5" width="31" height="31" rx="15.5" stroke="black"/>
<path d="M19.6114 23.48H12.3543V14.068L17.4343 9L18.3414 9.905C18.4261 9.98947 18.4956 10.1041 18.5501 10.2489C18.6045 10.3937 18.6317 10.5325 18.6317 10.6652V10.9186L17.8334 14.068H21.7886C22.1756 14.068 22.5143 14.2128 22.8046 14.5024C23.0949 14.792 23.24 15.1299 23.24 15.516V16.964C23.24 17.0485 23.2309 17.139 23.2128 17.2355C23.1946 17.332 23.1674 17.4225 23.1311 17.507L20.954 22.6112C20.8451 22.8525 20.6637 23.0577 20.4097 23.2266C20.1557 23.3955 19.8896 23.48 19.6114 23.48ZM10.9029 14.068V23.48H8V14.068H10.9029Z" fill="#00DC52"/>
</svg>
