<svg width="20" height="20" viewBox="0 0 20 20" fill="none" xmlns="http://www.w3.org/2000/svg">
<path d="M8.75 17H11.25V12.5H12.75V7.9C12.75 7.45 12.5125 7.10417 12.0375 6.8625C11.5625 6.62083 10.8833 6.5 10 6.5C9.11667 6.5 8.4375 6.62083 7.9625 6.8625C7.4875 7.10417 7.25 7.45 7.25 7.9V12.5H8.75V17ZM10 20C8.63333 20 7.34167 19.7375 6.125 19.2125C4.90833 18.6875 3.84583 17.9708 2.9375 17.0625C2.02917 16.1542 1.3125 15.0917 0.7875 13.875C0.2625 12.6583 0 11.3667 0 10C0 8.61667 0.2625 7.32083 0.7875 6.1125C1.3125 4.90417 2.02917 3.84583 2.9375 2.9375C3.84583 2.02917 4.90833 1.3125 6.125 0.7875C7.34167 0.2625 8.63333 0 10 0C11.3833 0 12.6792 0.2625 13.8875 0.7875C15.0958 1.3125 16.1542 2.02917 17.0625 2.9375C17.9708 3.84583 18.6875 4.90417 19.2125 6.1125C19.7375 7.32083 20 8.61667 20 10C20 11.3667 19.7375 12.6583 19.2125 13.875C18.6875 15.0917 17.9708 16.1542 17.0625 17.0625C16.1542 17.9708 15.0958 18.6875 13.8875 19.2125C12.6792 19.7375 11.3833 20 10 20ZM10 18C12.2167 18 14.1042 17.2208 15.6625 15.6625C17.2208 14.1042 18 12.2167 18 10C18 7.78333 17.2208 5.89583 15.6625 4.3375C14.1042 2.77917 12.2167 2 10 2C7.78333 2 5.89583 2.77917 4.3375 4.3375C2.77917 5.89583 2 7.78333 2 10C2 12.2167 2.77917 14.1042 4.3375 15.6625C5.89583 17.2208 7.78333 18 10 18ZM10 6C10.4333 6 10.7917 5.85833 11.075 5.575C11.3583 5.29167 11.5 4.93333 11.5 4.5C11.5 4.06667 11.3583 3.70833 11.075 3.425C10.7917 3.14167 10.4333 3 10 3C9.56667 3 9.20833 3.14167 8.925 3.425C8.64167 3.70833 8.5 4.06667 8.5 4.5C8.5 4.93333 8.64167 5.29167 8.925 5.575C9.20833 5.85833 9.56667 6 10 6Z" fill="black"/>
</svg>