<svg width="327" height="81" viewBox="0 0 327 81" fill="none" xmlns="http://www.w3.org/2000/svg">
<path d="M120.194 62.8628C120.194 62.6329 120.194 62.3909 120.194 62.161C120.194 61.1325 120.194 60.092 120.194 59.0635C120.194 57.5511 120.194 56.0386 120.194 54.5262C120.194 52.687 120.194 50.8358 120.194 48.9967C120.194 47.0003 120.194 45.0159 120.194 43.0195C120.194 41.023 120.194 39.0266 120.194 37.0302C120.194 35.2152 120.194 33.4003 120.194 31.5853C120.194 30.0971 120.194 28.6088 120.194 27.1085C120.194 26.1284 120.194 25.1362 120.194 24.1561C120.194 23.6117 120.194 23.0792 120.231 22.5348C120.267 21.9782 120.327 21.4337 120.388 20.8771C120.654 19.0864 121.09 17.3319 121.767 15.6501C122.263 14.5369 122.868 13.4722 123.594 12.48C124.357 11.5241 125.216 10.665 126.172 9.90276C127.26 9.10418 128.434 8.43874 129.668 7.89425C131.713 7.07148 133.867 6.53909 136.045 6.2245C139.275 5.81311 142.566 5.80105 145.809 6.03094C146.608 6.09144 147.406 6.16398 148.205 6.27287C150.201 6.56326 152.174 7.02311 154.037 7.77329C154.993 8.19677 155.9 8.71703 156.759 9.33411C157.449 9.89069 158.078 10.5199 158.647 11.2095C159.216 11.9839 159.7 12.8309 160.087 13.7142C160.595 15.0209 160.934 16.3882 161.139 17.7675C161.369 19.6672 161.406 21.6031 161.188 23.5148C160.97 24.9063 160.607 26.2615 160.087 27.5682C159.724 28.3789 159.312 29.1533 158.84 29.8914C157.497 29.0081 156.106 28.2095 154.618 27.5561C153.214 26.9391 151.786 26.3825 150.31 25.9832C148.762 25.5597 147.176 25.2935 145.579 25.112C142.688 24.7853 139.735 24.8821 136.868 25.3903C135.791 25.5839 134.726 25.8501 133.722 26.2615C133.105 26.5156 132.487 26.7697 131.895 27.1085C131.314 27.4351 130.794 27.8344 130.273 28.2579C128.579 29.6373 127.418 31.7426 127.067 33.8842C126.837 35.3241 126.777 36.7277 127.031 38.1675C127.248 39.3654 127.865 40.4301 128.628 41.3618C129.935 42.9468 131.991 43.8785 133.94 44.3867C135.9 44.8949 137.969 45.0643 139.989 44.9917C141.538 44.9433 143.087 44.7376 144.575 44.3262C145.846 43.9753 147.104 43.576 148.35 43.1283C150.056 42.5113 151.726 41.7974 153.335 40.9504C155.114 40.0188 156.772 38.9056 158.32 37.6473C158.744 37.2964 159.167 36.9333 159.566 36.5583C160.619 37.4778 161.611 38.47 162.482 39.5468C163.281 40.6358 163.947 41.7974 164.491 43.0315C165.362 45.1853 165.907 47.46 166.233 49.771C166.681 53.3162 166.693 56.8977 166.548 60.4671C166.512 61.2657 166.475 62.0642 166.427 62.8507H171.315C171.654 57.0429 171.727 51.102 170.371 45.4152C169.73 42.717 168.702 40.0309 167.153 37.7198C165.919 35.8807 164.382 34.2835 162.712 32.8437C163.898 31.065 164.818 29.117 165.399 27.048C166.088 24.5917 166.306 22.0024 166.161 19.4615C166.028 17.0779 165.665 14.6458 164.794 12.4195C163.983 10.3505 162.882 8.4629 161.321 6.87785C159.954 5.4864 158.284 4.34903 156.505 3.55046C152.234 1.63872 147.527 1.10637 142.881 1.00957C140.243 0.96117 137.63 1.09426 135.016 1.45725C132.911 1.74764 130.818 2.21954 128.834 2.98181C127.732 3.4053 126.656 3.87721 125.627 4.44589C124.623 5.00247 123.715 5.6558 122.808 6.35758C121.199 7.61594 119.831 9.20101 118.742 10.9192C117.557 12.7946 116.71 14.912 116.165 17.0537C115.838 18.3362 115.633 19.6551 115.475 20.9739C115.391 21.6999 115.306 22.4501 115.294 23.1882C115.27 24.5312 115.294 25.8743 115.294 27.2053C115.294 30.1092 115.294 33.001 115.294 35.9049C115.294 39.438 115.294 42.971 115.294 46.5162C115.294 49.771 115.294 53.0379 115.294 56.2927C115.294 58.3376 115.294 60.3824 115.294 62.4272C115.294 62.5603 115.294 62.7055 115.294 62.8386H120.182L120.194 62.8628ZM149.826 37.2842C149.427 37.4778 149.028 37.6593 148.616 37.8287C146.777 38.591 144.878 39.196 142.966 39.7162C142.566 39.8251 142.155 39.9099 141.744 39.9704C140.11 40.1639 138.428 40.1639 136.795 39.9704C135.851 39.8252 134.907 39.5952 134.012 39.2564C133.589 39.0629 133.177 38.833 132.79 38.5547C132.608 38.3974 132.439 38.228 132.282 38.0465C132.173 37.8892 132.076 37.7198 131.991 37.5625C131.931 37.3689 131.87 37.1754 131.834 36.9697C131.786 36.3526 131.798 35.7355 131.858 35.1305C131.943 34.6102 132.076 34.1141 132.258 33.6181C132.415 33.2793 132.609 32.9647 132.826 32.6501C133.08 32.3476 133.359 32.0693 133.661 31.8152C134.157 31.4522 134.702 31.1497 135.258 30.8956C136.359 30.4722 137.521 30.1938 138.695 30.0244C141.054 29.734 143.462 29.734 145.809 30.0244C147.951 30.339 150.056 30.9077 152.065 31.7305C153.299 32.275 154.485 32.9042 155.634 33.6059C155.356 33.8479 155.078 34.09 154.787 34.3199C153.25 35.4814 151.581 36.4614 149.838 37.2963L149.826 37.2842Z" fill="#0D1714" stroke="#0D1714" stroke-width="1.28" stroke-miterlimit="10"/>
<path d="M186.656 60.9268C183.704 59.2812 181.405 56.9218 179.784 53.8484C178.162 50.7872 177.352 47.2058 177.352 43.104C177.352 39.0022 178.162 35.3361 179.784 32.2749C181.405 29.2137 183.704 26.8421 186.656 25.1603C189.608 23.4784 193.057 22.6436 197.001 22.6436C200.946 22.6436 204.394 23.4784 207.346 25.1603C210.299 26.8421 212.598 29.2137 214.219 32.2749C215.84 35.3361 216.651 38.9538 216.651 43.104C216.651 47.2542 215.84 50.7872 214.219 53.8484C212.598 56.9097 210.287 59.2691 207.31 60.9268C204.322 62.5844 200.885 63.4072 197.001 63.4072C193.117 63.4072 189.608 62.5844 186.656 60.9268ZM204.842 57.0911C207.08 55.8086 208.811 53.9694 210.033 51.5737C211.255 49.178 211.872 46.3467 211.872 43.104C211.872 39.8613 211.255 37.0179 210.033 34.598C208.811 32.1781 207.08 30.3147 204.842 29.008C202.603 27.7012 199.966 27.0478 196.929 27.0478C193.892 27.0478 191.423 27.7012 189.221 29.008C187.007 30.3147 185.277 32.1659 184.031 34.5617C182.772 36.9574 182.155 39.8129 182.155 43.1161C182.155 46.4193 182.784 49.1901 184.031 51.5858C185.277 53.9816 187.019 55.8207 189.221 57.1032C191.435 58.3858 194.025 59.0271 197.013 59.0271C200.002 59.0271 202.603 58.3858 204.842 57.1032V57.0911Z" fill="#0D1714" stroke="#0D1714" stroke-width="1.28" stroke-miterlimit="10"/>
<path d="M231.256 60.9268C228.303 59.2812 226.005 56.9218 224.383 53.8484C222.762 50.7872 221.951 47.2058 221.951 43.104C221.951 39.0022 222.762 35.3361 224.383 32.2749C226.005 29.2137 228.303 26.8421 231.256 25.1603C234.208 23.4784 237.656 22.6436 241.601 22.6436C245.545 22.6436 248.994 23.4784 251.946 25.1603C254.898 26.8421 257.197 29.2137 258.819 32.2749C260.44 35.3361 261.251 38.9538 261.251 43.104C261.251 47.2542 260.44 50.7872 258.819 53.8484C257.197 56.9097 254.886 59.2691 251.91 60.9268C248.921 62.5844 245.485 63.4072 241.601 63.4072C237.717 63.4072 234.208 62.5844 231.256 60.9268ZM249.441 57.0911C251.68 55.8086 253.41 53.9694 254.632 51.5737C255.854 49.178 256.471 46.3467 256.471 43.104C256.471 39.8613 255.854 37.0179 254.632 34.598C253.41 32.1781 251.68 30.3147 249.441 29.008C247.203 27.7012 244.565 27.0478 241.528 27.0478C238.491 27.0478 236.023 27.7012 233.821 29.008C231.607 30.3147 229.876 32.1659 228.63 34.5617C227.372 36.9574 226.755 39.8129 226.755 43.1161C226.755 46.4193 227.384 49.1901 228.63 51.5858C229.876 53.9816 231.619 55.8207 233.821 57.1032C236.035 58.3858 238.624 59.0271 241.613 59.0271C244.602 59.0271 247.203 58.3858 249.441 57.1032V57.0911Z" fill="#0D1714" stroke="#0D1714" stroke-width="1.28" stroke-miterlimit="10"/>
<path d="M269.102 27.5199H262.314V23.285H269.102V19.2074C269.102 16.3277 269.635 13.8957 270.7 11.8993C271.764 9.90282 273.253 8.37825 275.176 7.33768C277.1 6.29711 279.387 5.77686 282.049 5.77686C283.38 5.77686 284.614 5.89784 285.764 6.13983C286.913 6.38182 287.905 6.63592 288.764 6.90211V11.2943C287.905 10.9797 286.973 10.7256 285.969 10.532C284.953 10.3505 283.84 10.2537 282.618 10.2537C279.847 10.2537 277.717 11.0039 276.229 12.4921C274.741 13.9804 273.991 16.1947 273.991 19.1228V23.2729H289.333V27.5078H273.991V62.754H269.114V27.5078L269.102 27.5199Z" fill="#0D1714" stroke="#0D1714" stroke-width="1.28" stroke-miterlimit="10"/>
<path d="M318.858 42.7533C316.596 42.1362 313.546 41.6523 309.711 41.2772C305.924 40.9021 303.117 40.5149 301.278 40.1156C299.438 39.7163 298.107 39.075 297.285 38.1917C296.462 37.3085 296.05 36.026 296.05 34.3199C296.05 32.8801 296.546 31.5854 297.527 30.448C298.507 29.2986 299.934 28.4153 301.798 27.774C303.661 27.1327 305.791 26.8181 308.186 26.8181C310.8 26.8181 312.966 27.1811 314.696 27.895C316.426 28.6089 317.721 29.6978 318.568 31.1377C319.016 31.8879 319.342 32.759 319.548 33.727H324.182C323.916 31.9725 323.408 30.3996 322.633 29.0203C321.46 26.9149 319.681 25.3299 317.273 24.2651C314.877 23.2004 311.78 22.668 308.005 22.668C304.653 22.668 301.701 23.1762 299.172 24.1925C296.643 25.2089 294.683 26.6003 293.304 28.3911C291.912 30.1818 291.223 32.2629 291.223 34.6708C291.223 37.0786 291.852 39.1234 293.098 40.5028C294.344 41.8943 296.099 42.8743 298.337 43.4551C300.576 44.048 303.661 44.5441 307.606 44.9797C311.332 45.3548 314.115 45.7298 315.954 46.0928C317.793 46.4679 319.112 47.0608 319.911 47.8956C320.709 48.7184 321.109 49.9284 321.109 51.5376C321.109 53.1469 320.625 54.5867 319.669 55.7362C318.713 56.8856 317.249 57.7569 315.277 58.374C313.304 58.991 310.909 59.2935 308.089 59.2935C305.27 59.2935 302.85 58.9063 301.011 58.132C299.172 57.3576 297.829 56.2686 296.97 54.8529C296.559 54.1753 296.256 53.4373 296.05 52.6266H291.452C291.719 54.1996 292.19 55.6394 292.904 56.9341C294.018 58.991 295.832 60.5881 298.337 61.7255C300.842 62.875 304.121 63.4436 308.162 63.4436C311.949 63.4436 315.168 62.9597 317.83 62.0038C320.492 61.048 322.5 59.6686 323.867 57.8899C325.223 56.1113 325.9 53.9334 325.9 51.3803C325.9 48.8273 325.283 47.0366 324.061 45.7056C322.839 44.3747 321.085 43.4067 318.822 42.7896L318.858 42.7533Z" fill="#0D1714" stroke="#0D1714" stroke-width="1.28" stroke-miterlimit="10"/>
<path d="M1.00017 62.5966V62.8506H5.80368V45.3183C5.80368 43.2493 5.86415 41.1802 6.08195 39.1233C6.10615 38.8571 6.14254 38.5788 6.17884 38.3127C6.46923 36.3041 6.92902 34.3077 7.69129 32.4201C8.11478 31.4764 8.62284 30.5689 9.22782 29.734C9.7602 29.0685 10.3652 28.4514 11.0307 27.919C11.7566 27.3867 12.5432 26.939 13.3659 26.5639C14.5154 26.1162 15.7133 25.8258 16.9233 25.6322C18.9439 25.3902 21.0008 25.4023 23.0335 25.6443C24.7033 25.8984 26.3367 26.3219 27.8976 26.9511C29.0713 27.4714 30.1966 28.1127 31.2613 28.8507C30.5958 29.5767 29.9666 30.339 29.3616 31.1255C28.1879 32.6742 27.1838 34.3681 26.4215 36.1589C25.6471 37.9738 25.0179 39.8251 24.7396 41.7731C24.5944 42.7774 24.4854 43.7817 24.5096 44.8101C24.5338 45.8991 24.6427 46.9881 24.8242 48.0649C25.163 50.1582 26.01 52.1425 27.4015 53.7397C28.0911 54.5261 28.9866 55.2158 29.9304 55.6635C31.2493 56.2926 32.568 56.6073 34.0199 56.7403C36.5608 56.9702 39.2713 56.3773 41.1104 54.5261C42.8286 52.7959 43.4456 50.4607 43.7481 48.1254C43.9901 46.2016 43.9538 44.2051 43.7481 42.2813C43.5787 40.6962 43.2883 39.1233 42.8285 37.5866C41.8726 34.477 40.3602 31.549 38.3275 29.0202C39.4648 28.2458 40.6869 27.5682 41.9452 27.0116C43.5545 26.3703 45.2242 25.9105 46.9303 25.6443C48.7331 25.4265 50.5601 25.4265 52.363 25.6443C53.4036 25.8016 54.4321 26.0557 55.4242 26.4429C56.1018 26.7454 56.743 27.1084 57.3359 27.544C57.832 27.9553 58.2918 28.4152 58.7153 28.9233C59.2356 29.6372 59.6711 30.4116 60.0341 31.2223C60.6754 32.8557 61.0626 34.5738 61.3167 36.3162C61.6434 38.9176 61.716 41.5553 61.716 44.1809C61.716 45.3062 61.716 46.4315 61.716 47.5568V60.6606C61.716 61.8101 61.7039 61.7617 61.716 62.8991C61.716 62.9112 61.716 62.9354 61.716 62.9475C61.716 62.9475 61.716 62.9717 61.716 62.9838H66.5196C66.5196 62.9838 66.5196 62.9596 66.5196 62.9475V49.7588C66.5196 47.8955 66.5196 46.0322 66.5196 44.1688C66.5196 40.2607 66.3865 36.2799 65.467 32.4685C65.0435 30.702 64.3901 28.9354 63.4584 27.3746C62.4783 25.729 61.1836 24.3739 59.6106 23.2849C58.0619 22.2081 56.2107 21.5184 54.3716 21.1433C52.0605 20.6835 49.6406 20.5625 47.2933 20.8045C45.9866 20.9376 44.6676 21.1433 43.3971 21.47C42.1509 21.7967 40.9531 22.2444 39.7553 22.7526C38.0129 23.5027 36.4037 24.4707 34.8912 25.5959C32.5923 23.7689 29.9182 22.4016 27.099 21.591C24.7154 20.9134 22.1987 20.623 19.7182 20.6351C17.5161 20.6472 15.2536 20.9013 13.1361 21.5426C11.1276 22.1597 9.32474 23.1276 7.69129 24.4344C6.31193 25.5354 5.1745 26.9753 4.29123 28.4999C2.23429 32.0451 1.49627 36.1952 1.16958 40.2244C0.988085 42.5233 1.00017 59.8984 1.00017 62.5845V62.5966ZM38.9567 47.9923C38.8478 48.6699 38.6904 49.3475 38.4484 50.0009C38.3032 50.3154 38.1339 50.6179 37.9282 50.9083C37.783 51.0656 37.6378 51.2229 37.4805 51.356C37.2991 51.477 37.1175 51.5859 36.9239 51.6827C36.6093 51.7916 36.2827 51.8763 35.956 51.9489C35.2784 52.0094 34.5886 51.9973 33.9111 51.9368C33.3908 51.8521 32.8705 51.719 32.3744 51.5254C32.0598 51.3681 31.7573 51.1987 31.4669 50.993C31.2128 50.7752 30.983 50.5453 30.7652 50.2912C30.4869 49.904 30.2571 49.4806 30.0514 49.045C29.761 48.2827 29.5795 47.4963 29.4464 46.6977C29.3012 45.4151 29.277 44.1204 29.4222 42.8258C29.6521 41.3254 30.0756 39.8493 30.6442 38.4336C31.3944 36.7276 32.3381 35.1184 33.4634 33.6301C33.8627 33.134 34.2741 32.65 34.7097 32.1781C34.7581 32.2265 34.7944 32.287 34.8307 32.3354C35.8833 33.739 36.7667 35.2635 37.4684 36.8728C38.146 38.5425 38.642 40.297 38.9082 42.0877C39.1381 44.0358 39.1744 46.0564 38.9446 47.9923H38.9567Z" fill="#0D1714" stroke="#0D1714" stroke-width="1.28" stroke-miterlimit="10"/>
<path d="M105.02 23.3817L91.2747 58.144H91.1174L75.6904 23.3817H70.0156L88.6129 64.5447C87.6812 66.6016 86.1445 69.929 85.5274 70.9696C84.6199 72.482 83.6519 73.571 82.6114 74.2122C81.5708 74.8535 80.3003 75.1681 78.8121 75.1681C78.0135 75.1681 77.2028 75.0713 76.38 74.8898C75.5573 74.7083 74.8434 74.5026 74.2626 74.2848V78.435C74.795 78.6528 75.5453 78.8585 76.5012 79.0763C77.457 79.2941 78.425 79.3909 79.3809 79.3909C81.7766 79.3909 83.7608 78.919 85.3338 77.9873C86.9067 77.0557 88.3467 75.4706 89.6534 73.2322C90.9602 70.9938 92.4362 67.7148 94.0939 63.4073L109.993 23.3696H105.032L105.02 23.3817Z" fill="#0D1714" stroke="#0D1714" stroke-width="1.28" stroke-miterlimit="10"/>
</svg>
