<svg width="1342" height="615" viewBox="0 0 1342 615" fill="none" xmlns="http://www.w3.org/2000/svg">
<path d="M-833 543.71C-520.178 744.222 27.9821 347.78 107.207 306.515C146.631 285.985 191.064 272.811 235.316 276.823C279.568 280.822 323.384 303.909 345.509 342.521C365.615 377.618 365.772 422.313 349.998 459.567C334.223 496.821 303.774 526.744 268.366 546.207C248.429 557.163 226.025 565.173 203.343 563.489C180.661 561.792 157.87 548.716 149.511 527.531C140.256 504.081 150.708 476.413 168.806 458.876C201.758 426.942 254.2 423.998 298.149 437.11C342.086 450.223 380.616 476.667 421.129 498.155C461.643 519.642 507.479 536.718 552.614 528.658C620.624 516.515 666.037 452.259 695.917 389.858C720.91 337.661 740.701 281.925 743.749 224.117C746.798 166.308 731.64 105.943 693.619 62.3501C667.779 32.7309 629.758 15.1218 590.49 15.0006C458.11 14.6007 485.873 212.603 659.42 288.712C723.269 316.719 1193.97 450.769 1329 243.362" stroke="#00FF5F" stroke-width="30" stroke-miterlimit="10"/>
</svg>
