<svg width="159" height="322" viewBox="0 0 159 322" fill="none" xmlns="http://www.w3.org/2000/svg">
<path d="M187.676 557.294C46.1981 554.372 174.642 316.027 185.137 286.579C190.358 271.926 191.226 258.52 183.469 250.511C175.718 242.499 158.417 240.531 136.115 247.943C115.844 254.682 93.3293 268.589 76.6252 283.509C59.9211 298.429 48.81 314.132 43.6057 327.612C40.677 335.2 39.5504 342.387 43.3395 346.608C47.1346 350.825 56.6712 351.516 68.4169 346.658C81.4192 341.28 93.9889 330.464 100.468 321.208C112.267 304.353 106.949 292.461 94.6506 287.354C82.3537 282.25 64.0486 282.435 47.981 280.659C31.9134 278.883 17.3757 274.618 15.5792 262.66C12.8719 244.641 39.3222 215.098 66.8535 189.384C89.8829 167.875 115.368 146.351 144.067 127.684C172.765 109.016 205.112 93.3612 231.982 87.7215C250.24 83.8908 264.032 86.3548 269.185 94.5338C286.552 122.11 183.3 178.053 122.492 165.476C100.117 160.85 -28.3848 104.163 58.4912 11.2218" stroke="#00FF5F" stroke-width="30" stroke-miterlimit="10"/>
</svg>
